<?xml version="1.0" encoding="utf-8"?>
<!-- Generator: Adobe Illustrator 19.0.0, SVG Export Plug-In . SVG Version: 6.00 Build 0)  -->
<!DOCTYPE svg PUBLIC "-//W3C//DTD SVG 1.1//EN" "http://www.w3.org/Graphics/SVG/1.1/DTD/svg11.dtd">
<svg version="1.1" id="Layer_1" xmlns="http://www.w3.org/2000/svg" xmlns:xlink="http://www.w3.org/1999/xlink" x="0px" y="0px"
	 viewBox="0 0 16 16" width="16" height="16" enable-background="new 0 0 16 16" xml:space="preserve">
<line fill="none" x1="41" y1="7.2" x2="41" y2="6.7"/>
<g>
	<rect x="5.7" y="9.7" fill="#3A3A3A" width="5" height="1.1"/>
	<rect x="5.7" y="7.9" fill="#3A3A3A" width="5" height="1.3"/>
	<rect x="5.7" y="6.2" fill="#3A3A3A" width="2.8" height="1.3"/>
	<path fill="#3A3A3A" d="M14.6,7.5l0.7-5.3L13.3,2l-0.5-2L7.6,1.3L2.3,0.6L2,2.6L0,3.2l1.3,5.2l-0.7,5.3l2,0.3l0.5,2l5.2-1.3
		l5.3,0.7l0.3-2.1l2-0.5L14.6,7.5z M11.8,10.9c0,0,0,0.6-0.6,0.6c-0.6,0-5,0-5.7,0c-0.6,0-0.6-0.6-0.6-0.6s0-5.2,0-5.8
		s0.6-0.6,0.6-0.6H9l2.7,2.7V10.9z"/>
	<polygon fill="#3A3A3A" points="8.9,7.1 10.8,7.1 8.9,5.4 	"/>
</g>
</svg>
