<?xml version="1.0" encoding="utf-8"?>
<!-- Generator: Adobe Illustrator 19.0.0, SVG Export Plug-In . SVG Version: 6.00 Build 0)  -->
<!DOCTYPE svg PUBLIC "-//W3C//DTD SVG 1.1//EN" "http://www.w3.org/Graphics/SVG/1.1/DTD/svg11.dtd">
<svg version="1.1" id="Layer_1" xmlns="http://www.w3.org/2000/svg" xmlns:xlink="http://www.w3.org/1999/xlink" x="0px" y="0px"
	 viewBox="0 0 32 32" width="32" height="32" enable-background="new 0 0 32 32" xml:space="preserve">
<rect id="XMLID_7_" x="1.7" y="1.7" transform="matrix(0.992 0.1264 -0.1264 0.992 2.1411 -1.8918)" fill="#797979" width="28.5" height="28.5"/>
<rect id="XMLID_6_" x="1.7" y="1.7" transform="matrix(0.9982 -6.017181e-02 6.017181e-02 0.9982 -0.929 0.9899)" opacity="0.6" fill="#9E9E9E" width="28.5" height="28.5"/>
<path id="XMLID_8_" fill="#FFFFFF" d="M18.1,7.1l-8.4,0c0,0-1.5,0-1.5,1.5c0,1.5,0,13.5,0,13.5s0,1.5,1.5,1.5c1.5,0,11.7,0,13.2,0
	c1.5,0,1.5-1.5,1.5-1.5v-8.8L18.1,7.1z M10.4,11.2l6.5,0l0,3l-6.5,0L10.4,11.2z M22,21.9l-11.6,0l0-2.5l11.6,0L22,21.9z M22,18.3
	l-11.6,0l0-3l11.6,0L22,18.3z M17.7,13.3V9.4l4.4,3.9L17.7,13.3z"/>
</svg>
